<svg width="32" height="32" viewBox="0 0 32 32" fill="none" xmlns="http://www.w3.org/2000/svg">
<path fill-rule="evenodd" clip-rule="evenodd" d="M18.8816 2.66699H23.7844C24.4872 2.66697 25.0936 2.66695 25.593 2.70776C26.1202 2.75082 26.6445 2.84591 27.149 3.10297C27.9016 3.48646 28.5135 4.09839 28.897 4.85103C29.1541 5.35554 29.2492 5.87983 29.2922 6.40696C29.3331 6.90639 29.333 7.51274 29.333 8.2156V26.667C30.0694 26.667 30.6663 27.2639 30.6663 28.0003C30.6663 28.7367 30.0694 29.3337 29.333 29.3337H2.66634C1.92996 29.3337 1.33301 28.7367 1.33301 28.0003C1.33301 27.2639 1.92996 26.667 2.66634 26.667V18.8823C2.66632 18.1794 2.6663 17.5731 2.7071 17.0736C2.75017 16.5465 2.84526 16.0222 3.10232 15.5177C3.48581 14.7651 4.09773 14.1531 4.85038 13.7696C5.35489 13.5126 5.87918 13.4175 6.4063 13.3744C6.90573 13.3336 7.51208 13.3336 8.21495 13.3337L13.333 13.3337V8.21559C13.333 7.51273 13.333 6.90639 13.3738 6.40696C13.4168 5.87983 13.5119 5.35554 13.769 4.85103C14.1525 4.09839 14.7644 3.48646 15.517 3.10297C16.0215 2.84591 16.5458 2.75082 17.073 2.70776C17.5724 2.66695 18.1788 2.66697 18.8816 2.66699ZM25.333 9.33366C25.333 8.59728 24.7361 8.00033 23.9997 8.00033H18.6663C17.93 8.00033 17.333 8.59728 17.333 9.33366C17.333 10.07 17.93 10.667 18.6663 10.667H23.9997C24.7361 10.667 25.333 10.07 25.333 9.33366ZM25.333 14.667C25.333 13.9306 24.7361 13.3337 23.9997 13.3337H18.6663C17.93 13.3337 17.333 13.9306 17.333 14.667C17.333 15.4034 17.93 16.0003 18.6663 16.0003H23.9997C24.7361 16.0003 25.333 15.4034 25.333 14.667ZM23.9997 18.667C24.7361 18.667 25.333 19.2639 25.333 20.0003C25.333 20.7367 24.7361 21.3337 23.9997 21.3337H18.6663C17.93 21.3337 17.333 20.7367 17.333 20.0003C17.333 19.2639 17.93 18.667 18.6663 18.667H23.9997Z" fill="#01322D"/>
</svg>
