<svg width="32" height="32" viewBox="0 0 32 32" fill="none" xmlns="http://www.w3.org/2000/svg">
<path fill-rule="evenodd" clip-rule="evenodd" d="M20.1785 2.87208C17.7705 0.819983 14.2288 0.819983 11.8208 2.87208C11.216 3.38748 10.4641 3.69895 9.67197 3.76216C6.51819 4.01383 4.01383 6.51819 3.76216 9.67197C3.69895 10.4641 3.38748 11.216 2.87208 11.8208C0.819983 14.2288 0.819983 17.7705 2.87208 20.1785C3.38748 20.7833 3.69895 21.5353 3.76216 22.3274C4.01383 25.4812 6.51819 27.9855 9.67197 28.2372C10.4641 28.3004 11.216 28.6119 11.8208 29.1273C14.2288 31.1794 17.7705 31.1794 20.1785 29.1273C20.7833 28.6119 21.5353 28.3004 22.3274 28.2372C25.4812 27.9855 27.9855 25.4812 28.2372 22.3274C28.3004 21.5353 28.6119 20.7833 29.1273 20.1785C31.1794 17.7705 31.1794 14.2288 29.1273 11.8208C28.6119 11.216 28.3004 10.4641 28.2372 9.67197C27.9855 6.51819 25.4812 4.01383 22.3274 3.76216C21.5353 3.69895 20.7833 3.38748 20.1785 2.87208ZM21.6091 13.6091C22.1299 13.0885 22.1299 12.2442 21.6091 11.7235C21.0885 11.2028 20.2442 11.2028 19.7235 11.7235L14.6663 16.7807L12.9425 15.0569C12.4218 14.5362 11.5776 14.5362 11.0569 15.0569C10.5362 15.5776 10.5362 16.4218 11.0569 16.9425L13.7235 19.6091C14.2442 20.1299 15.0885 20.1299 15.6091 19.6091L21.6091 13.6091Z" fill="#01322D"/>
</svg>
