<svg width="24" height="24" viewBox="0 0 24 24" fill="none" xmlns="http://www.w3.org/2000/svg">
<path fill-rule="evenodd" clip-rule="evenodd" d="M12 1.00024C5.92487 1.00024 1 5.92511 1 12.0003C1 18.0753 5.92487 23.0002 12 23.0002C18.0751 23.0002 23 18.0753 23 12.0003C23 5.92511 18.0751 1.00024 12 1.00024ZM17.2071 9.70737C17.5977 9.31684 17.5977 8.68369 17.2071 8.29317C16.8166 7.90264 16.1834 7.90264 15.7929 8.29317L10.5 13.586L8.20714 11.2932C7.81661 10.9026 7.18342 10.9026 6.7929 11.2932C6.40237 11.6837 6.40237 12.3168 6.7929 12.7074L9.79287 15.7074C10.1834 16.0979 10.8166 16.0979 11.2071 15.7074L17.2071 9.70737Z" fill="#01322D"/>
</svg>
