<svg width="24" height="24" viewBox="0 0 24 24" fill="none" xmlns="http://www.w3.org/2000/svg">
<path fill-rule="evenodd" clip-rule="evenodd" d="M0.999023 11.9998C0.999023 5.92462 5.9239 0.999756 11.999 0.999756C18.0742 0.999756 22.999 5.92462 22.999 11.9998C22.999 18.0748 18.0742 22.9998 11.999 22.9998C5.9239 22.9998 0.999023 18.0748 0.999023 11.9998ZM12.999 5.99976C12.999 5.44747 12.5513 4.99976 11.999 4.99976C11.4467 4.99976 10.999 5.44747 10.999 5.99976V11.9998C10.999 12.3785 11.213 12.7248 11.5518 12.8942L15.5518 14.8942C16.0458 15.1412 16.6465 14.9409 16.8935 14.447C17.1404 13.953 16.9402 13.3523 16.4462 13.1053L12.999 11.3817V5.99976Z" fill="#01322D"/>
</svg>
