<svg fill="none" height="24" viewBox="0 0 24 24" width="24" xmlns="http://www.w3.org/2000/svg"><path d="m13.9931 2.12409c.0551-.4405-.1868-.86456-.5941-1.04133-.4072-.176776-.8822-.06392-1.1664.27711l-8.92945 10.71543c-.15431.1851-.31061.3726-.42442.5373-.10762.1558-.30413.4622-.3102.8649-.00695.4609.19846.8995.55703 1.1892.31322.2532.67438.2983.86299.3154.19943.0181.44351.018.6845.0179h6.19505l-.8595 6.876c-.05509.4405.1869.8646.594 1.0413.4073.1768.8823.064 1.1664-.2771l8.9295-10.7153c.1543-.1851.3106-.3726.4245-.5374.1076-.1558.3041-.4621.3102-.8648.0069-.461-.1985-.89957-.5571-1.1893-.3132-.25312-.6744-.29827-.863-.31537-.1994-.01808-.4435-.018-.6845-.018h-6.195z" fill="#01322d"/></svg>