<svg width="24" height="24" viewBox="0 0 24 24" fill="none" xmlns="http://www.w3.org/2000/svg">
<path fill-rule="evenodd" clip-rule="evenodd" d="M3 10.0002C3 5.02968 7.02944 1.00024 12 1.00024C16.9705 1.00024 21 5.02968 21 10.0002C21 12.5264 19.8532 14.7405 18.2923 16.7673C16.9879 18.4609 15.3183 20.116 13.6507 21.7692L13.6495 21.7704C13.3345 22.0827 13.0196 22.395 12.7071 22.7073C12.3166 23.0979 11.6834 23.0979 11.2929 22.7073C10.9803 22.3947 10.6644 22.0816 10.3492 21.7691C8.68147 20.1159 7.01204 18.4609 5.70773 16.7673C4.14683 14.7405 3 12.5264 3 10.0002ZM15 10.0002C15 11.6571 13.6568 13.0002 12 13.0002C10.3432 13.0002 9 11.6571 9 10.0002C9 8.34342 10.3432 7.00024 12 7.00024C13.6568 7.00024 15 8.34342 15 10.0002Z" fill="#01322D"/>
</svg>
