<svg width="24" height="24" viewBox="0 0 24 24" fill="none" xmlns="http://www.w3.org/2000/svg">
<path fill-rule="evenodd" clip-rule="evenodd" d="M11.7143 1.08843C11.9039 1.06102 12.0966 1.06102 12.2863 1.08843C12.5049 1.12002 12.7084 1.19688 12.8699 1.2579L12.9132 1.27421L18.4056 3.33374C19.0235 3.56439 19.5659 3.76694 19.9838 4.13516C20.3493 4.45729 20.6309 4.86358 20.8041 5.31893C21.0022 5.83943 21.0014 6.41855 21.0004 7.078L21.0003 11.9999C21.0003 14.8265 19.463 17.1831 17.8012 18.9142C16.1283 20.6571 14.2143 21.8881 13.2022 22.4785L13.1612 22.5026C12.9765 22.611 12.7367 22.7518 12.4196 22.8197C12.1602 22.8754 11.8403 22.8754 11.5809 22.8197C11.2638 22.7518 11.024 22.611 10.8394 22.5026L10.7984 22.4785C9.78623 21.8881 7.87223 20.6571 6.19933 18.9142C4.53756 17.1831 3.00027 14.8265 3.00027 11.9999L3.00013 7.078C2.99918 6.41855 2.99834 5.83943 3.19641 5.31893C3.36968 4.86358 3.65124 4.45729 4.01675 4.13516C4.43458 3.76694 4.97711 3.56439 5.59491 3.33374L11.0873 1.27421L11.1306 1.2579C11.2922 1.19688 11.4956 1.12002 11.7143 1.08843ZM16.2074 9.7071C16.5979 9.31658 16.5979 8.68343 16.2074 8.2929C15.8168 7.90238 15.1837 7.90238 14.7932 8.2929L11.0003 12.0858L9.70733 10.7929C9.3168 10.4024 8.68365 10.4024 8.29313 10.7929C7.9026 11.1834 7.9026 11.8166 8.29313 12.2071L10.2932 14.2071C10.6837 14.5976 11.3168 14.5976 11.7074 14.2071L16.2074 9.7071Z" fill="#01322D"/>
</svg>
