<svg width="24" height="24" viewBox="0 0 24 24" fill="none" xmlns="http://www.w3.org/2000/svg">
<path fill-rule="evenodd" clip-rule="evenodd" d="M7 9.49998C7 6.73858 9.23862 4.5 12 4.5C14.7615 4.5 17 6.73858 17 9.49998C17 12.2614 14.7615 14.5 12 14.5C9.23862 14.5 7 12.2614 7 9.49998Z" fill="#01322D"/>
<path fill-rule="evenodd" clip-rule="evenodd" d="M12 1.00024C5.92487 1.00024 1 5.92511 1 12.0003C1 18.0753 5.92487 23.0002 12 23.0002C18.0751 23.0002 23 18.0753 23 12.0003C23 5.92511 18.0751 1.00024 12 1.00024ZM3 12.0003C3 7.02968 7.02944 3.00024 12 3.00024C16.9706 3.00024 21 7.02968 21 12.0003C21 14.2213 20.1954 16.2546 18.8618 17.8242C17.9457 16.7116 16.5564 16.0002 15 16.0002H9.00004C7.44368 16.0002 6.0544 16.7116 5.13825 17.8243C3.80461 16.2546 3 14.2214 3 12.0003Z" fill="#01322D"/>
</svg>
