<svg width="194" height="28" viewBox="0 0 194 28" fill="none" xmlns="http://www.w3.org/2000/svg">
<path d="M174.365 22C174.179 22 174.065 21.9068 174.023 21.7205L170.203 6.53212L170.172 6.40788C170.172 6.26293 170.265 6.19046 170.451 6.19046H173.092C173.299 6.19046 173.413 6.28364 173.433 6.47L175.67 17.1236C175.69 17.1857 175.711 17.2168 175.732 17.2168C175.752 17.2168 175.773 17.1857 175.794 17.1236L177.999 6.47C178.04 6.28364 178.154 6.19046 178.341 6.19046L180.981 6.22152C181.084 6.22152 181.157 6.25258 181.198 6.3147C181.26 6.37682 181.271 6.45965 181.229 6.56318L177.44 21.7205C177.419 21.9068 177.305 22 177.098 22H174.365Z" fill="#184647"/>
<path d="M164.016 22.2485C162.401 22.2485 161.118 21.8033 160.165 20.9129C159.233 20.0018 158.767 18.8008 158.767 17.3099V10.8805C158.767 9.41035 159.244 8.21972 160.196 7.30863C161.149 6.39753 162.422 5.94199 164.016 5.94199C165.632 5.94199 166.915 6.39753 167.868 7.30863C168.82 8.21972 169.297 9.41035 169.297 10.8805V17.3099C169.297 18.8008 168.82 20.0018 167.868 20.9129C166.915 21.8033 165.632 22.2485 164.016 22.2485ZM164.016 19.6394C164.679 19.6394 165.228 19.4117 165.663 18.9561C166.097 18.4799 166.315 17.8587 166.315 17.0925V11.0669C166.315 10.3214 166.097 9.7106 165.663 9.23435C165.228 8.75809 164.679 8.51997 164.016 8.51997C163.354 8.51997 162.805 8.75809 162.37 9.23435C161.956 9.7106 161.749 10.3214 161.749 11.0669V17.0925C161.749 17.8587 161.956 18.4799 162.37 18.9561C162.805 19.4117 163.354 19.6394 164.016 19.6394Z" fill="#184647"/>
<path d="M152.566 5.97305C153.871 5.97305 154.865 6.41825 155.548 7.30863C156.252 8.17831 156.604 9.42071 156.604 11.0358V21.6894C156.604 21.8965 156.501 22 156.294 22H153.933C153.726 22 153.622 21.8965 153.622 21.6894V11.2843C153.622 10.4146 153.436 9.74167 153.063 9.26541C152.691 8.78916 152.173 8.55103 151.51 8.55103C150.827 8.55103 150.289 8.78916 149.895 9.26541C149.523 9.72096 149.316 10.3732 149.274 11.2222C149.274 11.3464 149.264 11.4086 149.243 11.4086V21.6894C149.243 21.8965 149.14 22 148.932 22H146.572C146.365 22 146.261 21.8965 146.261 21.6894V6.50107C146.261 6.29401 146.365 6.19047 146.572 6.19047H148.932C149.14 6.19047 149.243 6.29401 149.243 6.50107V7.33969C149.243 7.38111 149.264 7.41217 149.305 7.43287C149.347 7.43287 149.388 7.40181 149.429 7.33969C150.175 6.4286 151.221 5.97305 152.566 5.97305Z" fill="#184647"/>
<path d="M144.087 15.0115C144.087 15.2186 143.984 15.3221 143.777 15.3221H136.757C136.674 15.3221 136.633 15.3635 136.633 15.4463V17.1236C136.633 17.869 136.84 18.4799 137.254 18.9561C137.668 19.4324 138.207 19.6705 138.869 19.6705C139.449 19.6705 139.936 19.4945 140.329 19.1425C140.722 18.7905 140.971 18.3349 141.075 17.7758C141.137 17.6102 141.251 17.5274 141.416 17.5274L143.715 17.6516C143.818 17.6516 143.891 17.6827 143.932 17.7448C143.994 17.8069 144.015 17.8794 143.994 17.9622C143.849 19.3081 143.332 20.3642 142.441 21.1303C141.571 21.8758 140.381 22.2485 138.869 22.2485C137.275 22.2485 136.001 21.8033 135.049 20.9129C134.117 20.0225 133.651 18.8319 133.651 17.341V10.8805C133.651 9.41035 134.117 8.21972 135.049 7.30863C136.001 6.39753 137.275 5.94199 138.869 5.94199C140.484 5.94199 141.758 6.39753 142.69 7.30863C143.621 8.21972 144.087 9.41035 144.087 10.8805V15.0115ZM138.869 8.51997C138.207 8.51997 137.668 8.75809 137.254 9.23435C136.84 9.7106 136.633 10.3214 136.633 11.0669V12.7131C136.633 12.7959 136.674 12.8373 136.757 12.8373H141.012C141.095 12.8373 141.137 12.7959 141.137 12.7131V11.0669C141.137 10.3214 140.93 9.7106 140.515 9.23435C140.101 8.75809 139.553 8.51997 138.869 8.51997Z" fill="#184647"/>
<path d="M129.423 22C129.237 22 129.113 21.9172 129.05 21.7515L126.193 12.4956C126.172 12.4335 126.131 12.4025 126.069 12.4025H123.894C123.812 12.4025 123.77 12.4439 123.77 12.5267V21.6894C123.77 21.8965 123.667 22 123.46 22H121.099C120.892 22 120.788 21.8965 120.788 21.6894V0.568595C120.788 0.361529 120.892 0.257996 121.099 0.257996H126.659C127.715 0.257996 128.647 0.516829 129.454 1.0345C130.262 1.55216 130.883 2.28725 131.318 3.23976C131.773 4.17156 132.001 5.23795 132.001 6.43894C132.001 7.74346 131.732 8.88232 131.194 9.85554C130.655 10.808 129.92 11.5017 128.988 11.9366C128.926 11.9987 128.905 12.0608 128.926 12.1229L132.094 21.6583L132.125 21.7826C132.125 21.9275 132.032 22 131.846 22H129.423ZM123.894 2.83598C123.812 2.83598 123.77 2.87739 123.77 2.96022V9.91766C123.77 10.0005 123.812 10.0419 123.894 10.0419H126.193C127.042 10.0419 127.725 9.72094 128.243 9.07904C128.761 8.41642 129.019 7.54674 129.019 6.47C129.019 5.35184 128.761 4.4718 128.243 3.8299C127.725 3.16728 127.042 2.83598 126.193 2.83598H123.894Z" fill="#184647"/>
<path d="M113.13 8.05407C113.13 8.26114 113.026 8.36467 112.819 8.36467H110.645C110.562 8.36467 110.52 8.40608 110.52 8.48891V17.2168C110.52 18.045 110.665 18.6248 110.955 18.9561C111.245 19.2667 111.701 19.4117 112.322 19.391H112.602C112.809 19.391 112.912 19.4945 112.912 19.7016V21.6894C112.912 21.8965 112.809 22 112.602 22H111.639C110.313 22 109.309 21.7412 108.626 21.2235C107.963 20.7058 107.632 19.7223 107.632 18.2728V8.48891C107.632 8.40608 107.59 8.36467 107.508 8.36467H106.296C106.089 8.36467 105.986 8.26114 105.986 8.05407V6.50107C105.986 6.294 106.089 6.19047 106.296 6.19047H107.508C107.59 6.19047 107.632 6.14906 107.632 6.06623V2.55645C107.632 2.34938 107.735 2.24585 107.942 2.24585H110.21C110.417 2.24585 110.52 2.34938 110.52 2.55645V6.06623C110.52 6.14906 110.562 6.19047 110.645 6.19047H112.819C113.026 6.19047 113.13 6.294 113.13 6.50107V8.05407Z" fill="#184647"/>
<path d="M104.131 6.03516C104.649 6.03516 105.094 6.14904 105.467 6.37682C105.612 6.45964 105.663 6.59424 105.622 6.7806L105.156 9.14116C105.135 9.32752 105.011 9.38964 104.783 9.32752C104.514 9.22398 104.224 9.17222 103.914 9.17222C103.789 9.17222 103.603 9.19292 103.355 9.23434C102.713 9.29646 102.174 9.64847 101.739 10.2904C101.325 10.9323 101.118 11.7088 101.118 12.6199V21.6894C101.118 21.8965 101.015 22 100.808 22H98.4471C98.24 22 98.1365 21.8965 98.1365 21.6894V6.50106C98.1365 6.29399 98.24 6.19046 98.4471 6.19046H100.808C101.015 6.19046 101.118 6.29399 101.118 6.50106V8.30254C101.118 8.36466 101.129 8.40607 101.149 8.42678C101.191 8.42678 101.222 8.39572 101.242 8.3336C101.843 6.8013 102.806 6.03516 104.131 6.03516Z" fill="#184647"/>
<path d="M95.9625 15.0115C95.9625 15.2186 95.859 15.3221 95.6519 15.3221H88.6324C88.5495 15.3221 88.5081 15.3635 88.5081 15.4463V17.1236C88.5081 17.869 88.7152 18.4799 89.1293 18.9561C89.5435 19.4324 90.0818 19.6705 90.7444 19.6705C91.3242 19.6705 91.8108 19.4945 92.2043 19.1425C92.5977 18.7905 92.8462 18.3349 92.9497 17.7758C93.0118 17.6102 93.1257 17.5274 93.2914 17.5274L95.5898 17.6516C95.6933 17.6516 95.7658 17.6827 95.8072 17.7448C95.8693 17.8069 95.8901 17.8794 95.8693 17.9622C95.7244 19.3081 95.2067 20.3642 94.3163 21.1303C93.4467 21.8758 92.256 22.2485 90.7444 22.2485C89.15 22.2485 87.8766 21.8033 86.9241 20.9129C85.9923 20.0225 85.5264 18.8319 85.5264 17.341V10.8805C85.5264 9.41035 85.9923 8.21972 86.9241 7.30863C87.8766 6.39753 89.15 5.94199 90.7444 5.94199C92.3596 5.94199 93.633 6.39753 94.5648 7.30863C95.4966 8.21972 95.9625 9.41035 95.9625 10.8805V15.0115ZM90.7444 8.51997C90.0818 8.51997 89.5435 8.75809 89.1293 9.23435C88.7152 9.7106 88.5081 10.3214 88.5081 11.0669V12.7131C88.5081 12.7959 88.5495 12.8373 88.6324 12.8373H92.8876C92.9704 12.8373 93.0118 12.7959 93.0118 12.7131V11.0669C93.0118 10.3214 92.8048 9.7106 92.3906 9.23435C91.9765 8.75809 91.4278 8.51997 90.7444 8.51997Z" fill="#184647"/>
<path d="M79.0792 5.94199C80.4252 5.94199 81.4916 6.39753 82.2784 7.30863C83.086 8.19901 83.4898 9.37929 83.4898 10.8495V17.3099C83.4898 18.8422 83.086 20.0536 82.2784 20.944C81.4916 21.8136 80.4252 22.2485 79.0792 22.2485C78.5823 22.2485 78.075 22.1553 77.5573 21.9689C77.0603 21.7826 76.6151 21.4927 76.2217 21.0993C76.1182 21.0371 76.0664 21.0579 76.0664 21.1614V27.6219C76.0664 27.8289 75.9629 27.9325 75.7558 27.9325H73.3952C73.1882 27.9325 73.0847 27.8289 73.0847 27.6219V6.50107C73.0847 6.294 73.1882 6.19047 73.3952 6.19047H75.7558C75.9629 6.19047 76.0664 6.294 76.0664 6.50107V6.99803C76.0664 7.03944 76.0871 7.0705 76.1285 7.09121C76.1699 7.09121 76.2114 7.0705 76.2528 7.02909C76.6462 6.65637 77.0914 6.38718 77.5883 6.22153C78.0853 6.03517 78.5823 5.94199 79.0792 5.94199ZM80.5391 11.0669C80.5391 10.3214 80.3216 9.7106 79.8868 9.23435C79.4727 8.75809 78.9343 8.51997 78.2717 8.51997C77.6298 8.51997 77.1017 8.75809 76.6876 9.23435C76.2735 9.7106 76.0664 10.3214 76.0664 11.0669V17.1236C76.0664 17.869 76.2735 18.4799 76.6876 18.9561C77.1017 19.4324 77.6298 19.6705 78.2717 19.6705C78.9343 19.6705 79.4727 19.4324 79.8868 18.9561C80.3216 18.4799 80.5391 17.869 80.5391 17.1236V11.0669Z" fill="#184647"/>
<path d="M60.3986 22C60.2951 22 60.2226 21.9689 60.1812 21.9068C60.1398 21.824 60.1398 21.7308 60.1812 21.6273L63.9395 14.2039C63.9809 14.1418 63.9809 14.0797 63.9395 14.0176L60.1812 6.56318C60.1605 6.52177 60.1501 6.47 60.1501 6.40788C60.1501 6.26293 60.233 6.19046 60.3986 6.19046H63.0077C63.194 6.19046 63.3183 6.26293 63.3804 6.40788L65.6478 11.2532C65.6685 11.2947 65.6995 11.3154 65.7409 11.3154C65.7824 11.3154 65.8134 11.2947 65.8341 11.2532L68.1326 6.40788C68.1947 6.26293 68.3189 6.19046 68.5053 6.19046H71.0833C71.1868 6.19046 71.2593 6.23187 71.3007 6.3147C71.3421 6.37682 71.3421 6.45965 71.3007 6.56318L67.5735 14.0176C67.5528 14.0797 67.5528 14.1418 67.5735 14.2039L71.3007 21.6273C71.3214 21.6687 71.3317 21.7205 71.3317 21.7826C71.3317 21.9275 71.2489 22 71.0833 22H68.5053C68.3189 22 68.1947 21.9275 68.1326 21.7826L65.8341 16.8751C65.8134 16.8337 65.7824 16.813 65.7409 16.813C65.6995 16.813 65.6685 16.8337 65.6478 16.8751L63.3493 21.7826C63.2872 21.9275 63.1733 22 63.0077 22H60.3986Z" fill="#184647"/>
<path d="M59.1052 2.52538C59.1052 2.73244 59.0017 2.83598 58.7946 2.83598H51.8061C51.7233 2.83598 51.6819 2.87739 51.6819 2.96022V9.70024C51.6819 9.78306 51.7233 9.82448 51.8061 9.82448H56.0924C56.2995 9.82448 56.403 9.92801 56.403 10.1351V12.0919C56.403 12.2989 56.2995 12.4025 56.0924 12.4025H51.8061C51.7233 12.4025 51.6819 12.4439 51.6819 12.5267V19.2978C51.6819 19.3806 51.7233 19.422 51.8061 19.422H58.7946C59.0017 19.422 59.1052 19.5255 59.1052 19.7326V21.6894C59.1052 21.8965 59.0017 22 58.7946 22H49.0107C48.8037 22 48.7001 21.8965 48.7001 21.6894V0.568595C48.7001 0.361529 48.8037 0.257996 49.0107 0.257996H58.7946C59.0017 0.257996 59.1052 0.361529 59.1052 0.568595V2.52538Z" fill="#184647"/>
<path d="M36.3123 5.97305C37.6168 5.97305 38.6108 6.41825 39.2941 7.30863C39.9981 8.17831 40.3501 9.42071 40.3501 11.0358V21.6894C40.3501 21.8965 40.2466 22 40.0395 22H37.679C37.4719 22 37.3684 21.8965 37.3684 21.6894V11.2843C37.3684 10.4146 37.182 9.74167 36.8093 9.26541C36.4366 8.78916 35.9189 8.55103 35.2563 8.55103C34.573 8.55103 34.0346 8.78916 33.6412 9.26541C33.2684 9.72096 33.0614 10.3732 33.02 11.2222C33.02 11.3464 33.0096 11.4086 32.9889 11.4086V21.6894C32.9889 21.8965 32.8854 22 32.6783 22H30.3177C30.1107 22 30.0071 21.8965 30.0071 21.6894V6.50107C30.0071 6.29401 30.1107 6.19047 30.3177 6.19047H32.6783C32.8854 6.19047 32.9889 6.29401 32.9889 6.50107V7.33969C32.9889 7.38111 33.0096 7.41217 33.051 7.43287C33.0924 7.43287 33.1338 7.40181 33.1753 7.33969C33.9207 6.4286 34.9664 5.97305 36.3123 5.97305Z" fill="#184647"/>
<path d="M22.4338 22.2485C20.8187 22.2485 19.5349 21.8033 18.5824 20.9129C17.6506 20.0018 17.1847 18.8008 17.1847 17.3099V10.8805C17.1847 9.41035 17.6609 8.21972 18.6135 7.30863C19.566 6.39753 20.8394 5.94199 22.4338 5.94199C24.049 5.94199 25.3328 6.39753 26.2853 7.30863C27.2378 8.21972 27.714 9.41035 27.714 10.8805V17.3099C27.714 18.8008 27.2378 20.0018 26.2853 20.9129C25.3328 21.8033 24.049 22.2485 22.4338 22.2485ZM22.4338 19.6394C23.0964 19.6394 23.6452 19.4117 24.08 18.9561C24.5149 18.4799 24.7323 17.8587 24.7323 17.0925V11.0669C24.7323 10.3214 24.5149 9.7106 24.08 9.23435C23.6452 8.75809 23.0964 8.51997 22.4338 8.51997C21.7712 8.51997 21.2225 8.75809 20.7877 9.23435C20.3735 9.7106 20.1665 10.3214 20.1665 11.0669V17.0925C20.1665 17.8587 20.3735 18.4799 20.7877 18.9561C21.2225 19.4117 21.7712 19.6394 22.4338 19.6394Z" fill="#184647"/>
<path d="M11.5854 0.475417C11.6682 0.330469 11.7924 0.257996 11.9581 0.257996H14.3186C14.5257 0.257996 14.6292 0.361529 14.6292 0.568595V21.6894C14.6292 21.8965 14.5257 22 14.3186 22H11.9581C11.751 22 11.6475 21.8965 11.6475 21.6894V6.28364C11.6475 6.22152 11.6268 6.19046 11.5854 6.19046C11.5647 6.19046 11.5336 6.21116 11.4922 6.25258L8.51043 11.8123C8.44831 11.9573 8.35513 12.0297 8.23089 12.0297C8.10665 12.0297 8.01347 11.9573 7.95135 11.8123L5.00065 6.28364C4.95923 6.24222 4.91782 6.22152 4.87641 6.22152C4.8557 6.22152 4.84535 6.25258 4.84535 6.3147V21.6894C4.84535 21.8965 4.74181 22 4.53475 22H2.17419C1.96712 22 1.86359 21.8965 1.86359 21.6894V0.568595C1.86359 0.361529 1.96712 0.257996 2.17419 0.257996H4.53475C4.67969 0.257996 4.80393 0.330469 4.90747 0.475417L8.16877 6.3147C8.18947 6.3354 8.22053 6.34576 8.26195 6.34576C8.30336 6.34576 8.33442 6.3354 8.35513 6.3147L11.5854 0.475417Z" fill="#184647"/>
<path d="M193.973 3.09144C192.449 8.22393 191.216 10.883 184.622 12.1832C181.957 6.97058 187.757 0.129113 193.973 3.09144Z" fill="#B8EA97"/>
</svg>
